<mxfile host="app.diagrams.net" modified="2023-08-29T21:11:34.238Z" agent="Mozilla/5.0 (Windows NT 10.0; Win64; x64) AppleWebKit/537.36 (KHTML, like Gecko) Chrome/114.0.0.0 Safari/537.36 OPR/100.0.0.0 (Edition std-1)" version="21.7.0" etag="IiUv2MI0AkhgoEmBM0tb" type="github">
  <diagram name="PÃ¡gina-1" id="0A5HZDv9G6a54KcIZ3BU">
    <mxGraphModel>
      <root>
        <mxCell id="0" />
        <mxCell id="1" parent="0" />
      </root>
    </mxGraphModel>
  </diagram>
</mxfile>
